<?xml version="1.0" encoding="UTF-8"?>
<!DOCTYPE svg PUBLIC "-//W3C//DTD SVG 1.1//EN" "http://www.w3.org/Graphics/SVG/1.1/DTD/svg11.dtd">
<svg xmlns="http://www.w3.org/2000/svg" version="1.1" width="963px" height="259px" style="shape-rendering:geometricPrecision; text-rendering:geometricPrecision; image-rendering:optimizeQuality; fill-rule:evenodd; clip-rule:evenodd" xmlns:xlink="http://www.w3.org/1999/xlink">
<g><path style="opacity:0.233" fill="#480409" d="M 121.5,26.5 C 120.711,26.2172 120.044,25.7172 119.5,25C 108.326,24.1743 97.3255,24.341 86.5,25.5C 86.1667,25.5 85.8333,25.5 85.5,25.5C 90.9597,24.1709 96.793,23.5042 103,23.5C 108.833,23.6667 114.667,23.8333 120.5,24C 121.252,24.6708 121.586,25.5041 121.5,26.5 Z"/></g>
<g><path style="opacity:0.205" fill="#4c070c" d="M 267.5,106.5 C 266.503,89.6749 266.17,72.6749 266.5,55.5C 281.833,55.5 297.167,55.5 312.5,55.5C 312.5,45.1667 312.5,34.8333 312.5,24.5C 285.661,24.1688 258.995,24.5021 232.5,25.5C 232.5,89.5 232.5,153.5 232.5,217.5C 231.501,153.335 231.168,89.0022 231.5,24.5C 258.67,23.1706 286.003,23.1706 313.5,24.5C 314.833,34.8333 314.833,45.1667 313.5,55.5C 298.181,56.4994 282.848,56.8327 267.5,56.5C 267.5,73.1667 267.5,89.8333 267.5,106.5 Z"/></g>
<g><path style="opacity:0.207" fill="#4b0c0e" d="M 442.5,55.5 C 442.5,45.1667 442.5,34.8333 442.5,24.5C 410.167,24.5 377.833,24.5 345.5,24.5C 345.5,34.8333 345.5,45.1667 345.5,55.5C 355.833,55.5 366.167,55.5 376.5,55.5C 376.833,55.5 377.167,55.5 377.5,55.5C 377.5,107.833 377.5,160.167 377.5,212.5C 376.833,160.833 376.167,109.167 375.5,57.5C 365.098,56.8227 354.598,56.156 344,55.5C 343.446,44.8637 343.613,34.1971 344.5,23.5C 377.51,22.7904 410.51,22.7904 443.5,23.5C 443.181,33.7491 443.514,43.9158 444.5,54C 443.956,54.7172 443.289,55.2172 442.5,55.5 Z"/></g>
<g><path style="opacity:0.206" fill="#330804" d="M 510.5,106.5 C 510.167,106.5 509.833,106.5 509.5,106.5C 509.5,89.5 509.5,72.5 509.5,55.5C 524.833,55.5 540.167,55.5 555.5,55.5C 555.5,45.8333 555.5,36.1667 555.5,26.5C 529.188,24.5088 502.521,23.8421 475.5,24.5C 475.5,24.1667 475.5,23.8333 475.5,23.5C 497.571,23.3313 519.571,22.998 541.5,22.5C 546.538,22.6273 551.538,23.1273 556.5,24C 557.833,34.6667 557.833,45.3333 556.5,56C 541.17,56.4999 525.837,56.6666 510.5,56.5C 510.5,73.1667 510.5,89.8333 510.5,106.5 Z"/></g>
<g><path style="opacity:0.217" fill="#400607" d="M 876.5,26.5 C 871.208,25.1712 865.542,24.5045 859.5,24.5C 853.833,24.6667 848.167,24.8333 842.5,25C 841.956,25.7172 841.289,26.2172 840.5,26.5C 840.414,25.5041 840.748,24.6708 841.5,24C 843.764,23.7638 845.931,23.2638 848,22.5C 857.131,23.6622 866.131,23.6622 875,22.5C 877.21,23.4903 877.71,24.8236 876.5,26.5 Z"/></g>
<g><path style="opacity:0.754" fill="#a72d34" d="M 442.5,55.5 C 432.167,55.5 421.833,55.5 411.5,55.5C 421.319,54.506 431.319,54.1726 441.5,54.5C 441.5,44.8333 441.5,35.1667 441.5,25.5C 409.996,25.1685 378.662,25.5018 347.5,26.5C 346.506,35.6517 346.173,44.985 346.5,54.5C 356.681,54.1726 366.681,54.506 376.5,55.5C 366.167,55.5 355.833,55.5 345.5,55.5C 345.5,45.1667 345.5,34.8333 345.5,24.5C 377.833,24.5 410.167,24.5 442.5,24.5C 442.5,34.8333 442.5,45.1667 442.5,55.5 Z"/></g>
<g><path style="opacity:0.754" fill="#a73136" d="M 475.5,24.5 C 502.521,23.8421 529.188,24.5088 555.5,26.5C 555.167,26.5 554.833,26.5 554.5,26.5C 528.5,25.1667 502.5,25.1667 476.5,26.5C 476.167,26.5 475.833,26.5 475.5,26.5C 475.5,26.1667 475.5,25.8333 475.5,25.5C 475.5,25.1667 475.5,24.8333 475.5,24.5 Z"/></g>
<g><path style="opacity:0.782" fill="#a73137" d="M 801.5,24.5 C 801.5,25.8333 801.5,27.1667 801.5,28.5C 800.833,27.8333 800.167,27.1667 799.5,26.5C 789.681,25.506 779.681,25.1726 769.5,25.5C 769.5,26.5 769.5,27.5 769.5,28.5C 768.609,27.7387 767.942,26.7387 767.5,25.5C 778.814,24.5012 790.147,24.1678 801.5,24.5 Z"/></g>
<g><path style="opacity:0.782" fill="#a22f36" d="M 876.5,26.5 C 876.5,26.8333 876.5,27.1667 876.5,27.5C 875.833,27.8333 875.167,28.1667 874.5,28.5C 874.5,27.5 874.5,26.5 874.5,25.5C 863.986,25.1724 853.653,25.5058 843.5,26.5C 842.833,26.5 842.5,26.8333 842.5,27.5C 841.833,28.5 841.167,29.5 840.5,30.5C 840.5,29.5 840.5,28.5 840.5,27.5C 840.5,27.1667 840.5,26.8333 840.5,26.5C 841.289,26.2172 841.956,25.7172 842.5,25C 848.167,24.8333 853.833,24.6667 859.5,24.5C 865.542,24.5045 871.208,25.1712 876.5,26.5 Z"/></g>
<g><path style="opacity:1" fill="#dc303a" d="M 347.5,26.5 C 378.662,25.5018 409.996,25.1685 441.5,25.5C 441.5,35.1667 441.5,44.8333 441.5,54.5C 431.319,54.1726 421.319,54.506 411.5,55.5C 411.167,55.5 410.833,55.5 410.5,55.5C 410.167,55.5 409.833,55.5 409.5,55.5C 409.611,54.8826 409.944,54.3826 410.5,54C 420.161,53.5002 429.828,53.3335 439.5,53.5C 440.764,44.5115 440.764,35.5115 439.5,26.5C 408.833,26.5 378.167,26.5 347.5,26.5 Z"/></g>
<g><path style="opacity:1" fill="#db3139" d="M 799.5,26.5 C 790.5,26.5 781.5,26.5 772.5,26.5C 770.952,26.8212 770.285,27.8212 770.5,29.5C 770.167,29.5 769.833,29.5 769.5,29.5C 769.5,29.1667 769.5,28.8333 769.5,28.5C 769.5,27.5 769.5,26.5 769.5,25.5C 779.681,25.1726 789.681,25.506 799.5,26.5 Z"/></g>
<g><path style="opacity:1" fill="#d5313b" d="M 843.5,26.5 C 853.653,25.5058 863.986,25.1724 874.5,25.5C 874.5,26.5 874.5,27.5 874.5,28.5C 874.5,29.5 874.5,30.5 874.5,31.5C 873.272,32.3065 872.272,33.3065 871.5,34.5C 872.639,31.9963 873.306,29.3297 873.5,26.5C 863.5,26.5 853.5,26.5 843.5,26.5 Z"/></g>
<g><path style="opacity:1" fill="#f0242e" d="M 704.5,26.5 C 713.5,26.5 722.5,26.5 731.5,26.5C 732.482,91.1481 732.816,155.815 732.5,220.5C 731.833,220.5 731.167,220.5 730.5,220.5C 729.391,219.71 728.058,219.21 726.5,219C 719.174,218.5 711.841,218.334 704.5,218.5C 704.5,154.5 704.5,90.5 704.5,26.5 Z"/></g>
<g><path style="opacity:0.016" fill="#490a0d" d="M 801.5,24.5 C 804.803,30.4024 807.136,36.7357 808.5,43.5C 806.833,40.1667 805.167,36.8333 803.5,33.5C 803.88,31.302 803.213,29.6354 801.5,28.5C 801.5,27.1667 801.5,25.8333 801.5,24.5 Z"/></g>
<g><path style="opacity:1" fill="#ef252e" d="M 310.5,53.5 C 295.5,54.1667 280.5,54.8333 265.5,55.5C 265.17,73.3412 265.503,91.0079 266.5,108.5C 278.989,109.495 291.656,109.829 304.5,109.5C 304.748,118.54 304.415,127.54 303.5,136.5C 290.989,136.171 278.655,136.505 266.5,137.5C 265.662,137.842 265.328,138.508 265.5,139.5C 265.17,156.009 265.504,172.342 266.5,188.5C 269.482,189.165 272.648,189.498 276,189.5C 287.5,188.762 299,188.095 310.5,187.5C 311.049,197.026 310.382,206.359 308.5,215.5C 301.48,215.502 294.48,215.835 287.5,216.5C 270.126,216.509 252.793,217.175 235.5,218.5C 235.5,217.167 235.5,215.833 235.5,214.5C 239.836,215.634 244.169,215.634 248.5,214.5C 244.067,213.861 239.734,212.861 235.5,211.5C 234.5,149.837 234.167,88.1703 234.5,26.5C 259.833,26.5 285.167,26.5 310.5,26.5C 310.5,35.5 310.5,44.5 310.5,53.5 Z"/></g>
<g><path style="opacity:1" fill="#f0252e" d="M 347.5,26.5 C 378.167,26.5 408.833,26.5 439.5,26.5C 440.764,35.5115 440.764,44.5115 439.5,53.5C 429.828,53.3335 420.161,53.5002 410.5,54C 409.944,54.3826 409.611,54.8826 409.5,55.5C 408.501,106.997 408.168,158.664 408.5,210.5C 398.833,210.5 389.167,210.5 379.5,210.5C 379.176,159.477 379.509,108.477 380.5,57.5C 380.253,56.2867 379.586,55.62 378.5,55.5C 378.167,55.5 377.833,55.5 377.5,55.5C 368.219,53.6879 358.552,52.8545 348.5,53C 347.516,44.2511 347.183,35.4178 347.5,26.5 Z"/></g>
<g><path style="opacity:1" fill="#f0252e" d="M 509.5,54.5 C 508.833,54.8333 508.167,55.1667 507.5,55.5C 506.338,72.6618 506.171,89.9951 507,107.5C 507.5,108 508,108.5 508.5,109C 521.496,109.5 534.496,109.667 547.5,109.5C 547.5,118.5 547.5,127.5 547.5,136.5C 534.496,136.333 521.496,136.5 508.5,137C 507.748,137.671 507.414,138.504 507.5,139.5C 507.5,163.167 507.5,186.833 507.5,210.5C 497.319,210.827 487.319,210.494 477.5,209.5C 477.5,148.5 477.5,87.5 477.5,26.5C 502.833,26.5 528.167,26.5 553.5,26.5C 553.5,35.5 553.5,44.5 553.5,53.5C 538.657,53.1707 523.99,53.504 509.5,54.5 Z"/></g>
<g><path style="opacity:1" fill="#ef252e" d="M 772.5,26.5 C 781.5,26.5 790.5,26.5 799.5,26.5C 800.167,27.1667 800.833,27.8333 801.5,28.5C 803.213,29.6354 803.88,31.302 803.5,33.5C 806.192,40.9168 807.858,48.5835 808.5,56.5C 809.5,56.5 810.5,56.5 811.5,56.5C 811.402,58.5529 812.069,60.2196 813.5,61.5C 814.684,66.5543 816.184,71.5543 818,76.5C 818.837,78.0074 820.004,78.5074 821.5,78C 823.155,76.5557 823.822,74.7224 823.5,72.5C 827.252,69.0508 829.252,64.7175 829.5,59.5C 832.201,56.0689 833.534,52.0689 833.5,47.5C 834.832,45.8679 836.165,44.2012 837.5,42.5C 839.389,37.4999 841.056,32.4999 842.5,27.5C 842.5,26.8333 842.833,26.5 843.5,26.5C 853.5,26.5 863.5,26.5 873.5,26.5C 873.306,29.3297 872.639,31.9963 871.5,34.5C 871.371,36.2161 871.038,37.8828 870.5,39.5C 868.926,39.9371 867.759,40.9371 867,42.5C 866.667,41.5 866.333,40.5 866,39.5C 864.725,44.0813 863.725,48.748 863,53.5C 861.869,55.6045 860.703,57.6045 859.5,59.5C 858.186,63.6912 857.186,68.0246 856.5,72.5C 856.672,73.4916 856.338,74.1583 855.5,74.5C 853.787,75.6354 853.12,77.302 853.5,79.5C 852.5,79.5 851.5,79.5 850.5,79.5C 849.908,84.9321 848.908,90.2655 847.5,95.5C 846.5,95.5 845.5,95.5 844.5,95.5C 843.558,100.826 841.725,105.826 839,110.5C 838.047,113.432 837.547,116.432 837.5,119.5C 836.252,120.334 835.585,121.667 835.5,123.5C 837.316,131.878 839.316,140.212 841.5,148.5C 842.86,149.18 844.193,149.847 845.5,150.5C 845.5,150.833 845.5,151.167 845.5,151.5C 846.035,155.819 846.535,160.152 847,164.5C 847.969,166.734 849.302,168.734 851,170.5C 852.729,176.49 854.896,182.156 857.5,187.5C 858.345,188.671 859.011,190.005 859.5,191.5C 859.976,196.594 861.642,201.261 864.5,205.5C 864.259,207.898 864.926,209.898 866.5,211.5C 866.861,215.915 868.194,219.915 870.5,223.5C 870.689,227.64 871.356,231.64 872.5,235.5C 865.857,234.615 859.19,233.948 852.5,233.5C 851.5,233.5 850.5,233.5 849.5,233.5C 847.444,232.801 845.444,231.801 843.5,230.5C 841.701,228.08 840.034,225.746 838.5,223.5C 838.66,221.801 838.494,220.134 838,218.5C 836.1,214.7 834.267,211.033 832.5,207.5C 832.969,202.227 831.303,197.893 827.5,194.5C 827.5,193.5 827.5,192.5 827.5,191.5C 825.771,186.333 824.271,181 823,175.5C 822.051,173.907 820.885,172.574 819.5,171.5C 819.5,170.5 819.5,169.5 819.5,168.5C 818.167,168.5 816.833,168.5 815.5,168.5C 815.007,170.806 814.674,173.139 814.5,175.5C 813.89,176.391 813.557,177.391 813.5,178.5C 811.938,181.409 809.938,184.076 807.5,186.5C 806.134,191.581 804.801,196.581 803.5,201.5C 802.5,201.5 801.5,201.5 800.5,201.5C 800.288,206.678 799.288,211.678 797.5,216.5C 797.672,217.492 797.338,218.158 796.5,218.5C 794.733,220.792 793.733,223.458 793.5,226.5C 784.136,226.058 774.803,225.225 765.5,224C 764.239,220.094 765.072,216.594 768,213.5C 768.495,211.527 768.662,209.527 768.5,207.5C 772.35,202.99 774.684,197.657 775.5,191.5C 777.654,187.864 779.821,184.198 782,180.5C 783.837,175.993 785.004,171.327 785.5,166.5C 788.907,160.688 792.074,154.688 795,148.5C 795.751,143.135 797.251,138.135 799.5,133.5C 802.189,130.464 803.522,126.797 803.5,122.5C 801.771,116.234 799.437,110.234 796.5,104.5C 795.463,103.07 794.796,101.403 794.5,99.5C 793.635,94.1018 792.468,88.7685 791,83.5C 790.184,82.1772 789.017,81.5106 787.5,81.5C 787.5,80.8333 787.5,80.1667 787.5,79.5C 787.123,75.3269 786.123,71.3269 784.5,67.5C 782.842,57.7248 780.176,48.2248 776.5,39C 776.961,36.8007 777.127,34.6341 777,32.5C 776.107,33.7112 775.274,33.7112 774.5,32.5C 774.709,31.914 775.043,31.414 775.5,31C 773.561,30.0922 772.561,28.5922 772.5,26.5 Z"/></g>
<g><path style="opacity:0.251" fill="#360904" d="M 876.5,27.5 C 876.771,29.3797 876.104,30.713 874.5,31.5C 874.5,30.5 874.5,29.5 874.5,28.5C 875.167,28.1667 875.833,27.8333 876.5,27.5 Z"/></g>
<g><path style="opacity:1" fill="#f0252e" d="M 192.5,26.5 C 192.482,92.0728 192.482,157.739 192.5,223.5C 185.867,224.214 179.2,224.714 172.5,225C 171.944,225.383 171.611,225.883 171.5,226.5C 167.446,227.184 163.446,227.184 159.5,226.5C 157.564,221.193 155.731,215.86 154,210.5C 153.623,209.058 152.79,208.058 151.5,207.5C 151.323,203.148 150.323,198.981 148.5,195C 148.164,193.97 147.497,193.47 146.5,193.5C 146.5,193.167 146.5,192.833 146.5,192.5C 145.234,186.357 143.234,180.69 140.5,175.5C 140.946,172.99 140.28,170.99 138.5,169.5C 134.229,156.257 129.896,142.923 125.5,129.5C 125.253,128.287 124.586,127.62 123.5,127.5C 124.089,122.161 122.089,118.494 117.5,116.5C 116.518,155.136 116.185,193.803 116.5,232.5C 108.256,232.781 100.089,233.781 92,235.5C 90.3189,235.392 89.1522,234.725 88.5,233.5C 89.3149,232.571 90.1482,231.571 91,230.5C 91.414,230.957 91.914,231.291 92.5,231.5C 96.303,229.986 100.303,228.986 104.5,228.5C 99.8333,227.833 95.1667,227.167 90.5,226.5C 91.6651,225.416 92.9984,224.583 94.5,224C 93.1693,165.234 93.1693,106.401 94.5,47.5C 95.329,42.5329 95.829,37.5329 96,32.5C 96.6667,31.8333 97.3333,31.1667 98,30.5C 101.667,30.8333 105.333,31.1667 109,31.5C 109.75,30.8742 110.584,30.3742 111.5,30C 106.467,29.829 101.467,29.329 96.5,28.5C 103.828,27.416 111.161,27.416 118.5,28.5C 118.5,29.8333 118.5,31.1667 118.5,32.5C 117.127,32.3433 115.793,32.51 114.5,33C 116.061,33.3176 117.228,34.1509 118,35.5C 118.852,34.4293 119.685,33.4293 120.5,32.5C 120.914,37.0745 121.581,41.5745 122.5,46C 121.833,46.6667 121.167,47.3333 120.5,48C 122.802,51.4781 125.469,54.6448 128.5,57.5C 130.154,60.2729 129.821,62.7729 127.5,65C 128.01,66.8261 128.844,66.9928 130,65.5C 130.991,66.4296 131.491,67.5962 131.5,69C 130.833,71 130.167,73 129.5,75C 130.688,77.1893 130.688,79.356 129.5,81.5C 129.667,82.1667 129.833,82.8333 130,83.5C 131.188,82.4366 131.688,81.1033 131.5,79.5C 132.5,79.5 133.5,79.5 134.5,79.5C 134.351,78.448 134.517,77.448 135,76.5C 135.595,80.2119 136.928,83.5452 139,86.5C 139.333,86.1667 139.667,85.8333 140,85.5C 140.333,88.8333 140.667,92.1667 141,95.5C 141.383,94.944 141.883,94.6107 142.5,94.5C 144.414,97.5715 145.748,100.905 146.5,104.5C 146.681,107.397 146.348,110.23 145.5,113C 146.032,115.02 147.365,115.853 149.5,115.5C 153.315,125.5 156.315,135.834 158.5,146.5C 160.591,146.682 162.591,146.348 164.5,145.5C 165.5,105.839 165.833,66.1723 165.5,26.5C 174.5,26.5 183.5,26.5 192.5,26.5 Z"/></g>
<g><path style="opacity:0.97" fill="#d0323b" d="M 589.5,25.5 C 590.167,25.5 590.833,25.5 591.5,25.5C 591.5,25.8333 591.5,26.1667 591.5,26.5C 590.335,87.9986 590.168,149.665 591,211.5C 598.413,212.481 605.913,212.814 613.5,212.5C 619.833,213.167 626.167,213.833 632.5,214.5C 618.5,214.167 604.5,213.833 590.5,213.5C 589.833,213.5 589.5,213.167 589.5,212.5C 589.5,150.167 589.5,87.8333 589.5,25.5 Z"/></g>
<g><path style="opacity:1" fill="#f0252e" d="M 591.5,26.5 C 601.167,26.5 610.833,26.5 620.5,26.5C 620.18,79.8629 620.513,133.196 621.5,186.5C 632.833,186.5 644.167,186.5 655.5,186.5C 656.167,186.5 656.833,186.5 657.5,186.5C 660.625,187.479 663.958,187.813 667.5,187.5C 667.5,196.833 667.5,206.167 667.5,215.5C 656.183,214.741 644.85,214.407 633.5,214.5C 633.167,214.5 632.833,214.5 632.5,214.5C 626.167,213.833 619.833,213.167 613.5,212.5C 606.361,211.293 599.028,210.626 591.5,210.5C 592.833,149.167 592.833,87.8333 591.5,26.5 Z"/></g>
<g><path style="opacity:0.013" fill="#020000" d="M 623.5,30.5 C 624.499,80.9973 624.832,131.664 624.5,182.5C 627.385,182.194 630.052,182.527 632.5,183.5C 629.5,183.5 626.5,183.5 623.5,183.5C 623.5,132.5 623.5,81.5 623.5,30.5 Z"/></g>
<g><path style="opacity:1" fill="#e32b33" d="M 704.5,26.5 C 704.5,90.5 704.5,154.5 704.5,218.5C 711.841,218.334 719.174,218.5 726.5,219C 728.058,219.21 729.391,219.71 730.5,220.5C 724.833,220.5 719.167,220.5 713.5,220.5C 710.167,219.833 706.833,219.167 703.5,218.5C 703.168,154.331 703.501,90.3312 704.5,26.5 Z"/></g>
<g><path style="opacity:0.391" fill="#5f0f13" d="M 163.5,25.5 C 163.5,64.8333 163.5,104.167 163.5,143.5C 161.824,142.817 161.157,141.483 161.5,139.5C 162.167,101.5 162.833,63.5 163.5,25.5 Z"/></g>
<g><path style="opacity:0.245" fill="#460204" d="M 194.5,226.5 C 194.5,226.167 194.5,225.833 194.5,225.5C 195.499,158.669 195.832,91.6687 195.5,24.5C 185.167,24.5 174.833,24.5 164.5,24.5C 164.5,24.1667 164.5,23.8333 164.5,23.5C 175.334,23.3928 186,23.3928 196.5,23.5C 196.169,90.4044 196.502,157.238 197.5,224C 196.922,225.417 195.922,226.25 194.5,226.5 Z"/></g>
<g><path style="opacity:0.897" fill="#c13842" d="M 232.5,25.5 C 232.833,25.5 233.167,25.5 233.5,25.5C 233.5,90.5 233.5,155.5 233.5,220.5C 240.827,220.056 248.16,219.723 255.5,219.5C 248.049,220.972 240.382,221.639 232.5,221.5C 232.5,220.167 232.5,218.833 232.5,217.5C 232.5,153.5 232.5,89.5 232.5,25.5 Z"/></g>
<g><path style="opacity:0.844" fill="#bd3239" d="M 475.5,26.5 C 475.833,26.5 476.167,26.5 476.5,26.5C 476.168,87.6689 476.501,148.669 477.5,209.5C 487.319,210.494 497.319,210.827 507.5,210.5C 507.5,186.833 507.5,163.167 507.5,139.5C 508.289,139.217 508.956,138.717 509.5,138C 522.496,137.5 535.496,137.333 548.5,137.5C 548.5,127.833 548.5,118.167 548.5,108.5C 549.494,118.319 549.827,128.319 549.5,138.5C 536.323,138.171 523.323,138.505 510.5,139.5C 509.883,139.611 509.383,139.944 509,140.5C 508.5,164.164 508.333,187.831 508.5,211.5C 497.5,211.5 486.5,211.5 475.5,211.5C 475.5,149.833 475.5,88.1667 475.5,26.5 Z"/></g>
<g><path style="opacity:0.695" fill="#94242b" d="M 701.5,24.5 C 713.216,23.8556 724.549,24.5223 735.5,26.5C 735.167,26.5 734.833,26.5 734.5,26.5C 724.013,25.5056 713.346,25.1722 702.5,25.5C 702.168,90.0022 702.501,154.335 703.5,218.5C 706.833,219.167 710.167,219.833 713.5,220.5C 713.5,220.833 713.5,221.167 713.5,221.5C 709.629,221.815 705.962,221.482 702.5,220.5C 701.504,155.238 701.17,89.9045 701.5,24.5 Z"/></g>
<g><path style="opacity:1" fill="#d3323c" d="M 734.5,26.5 C 733.5,26.5 732.5,26.5 731.5,26.5C 722.5,26.5 713.5,26.5 704.5,26.5C 703.501,90.3312 703.168,154.331 703.5,218.5C 702.501,154.335 702.168,90.0022 702.5,25.5C 713.346,25.1722 724.013,25.5056 734.5,26.5 Z"/></g>
<g><path style="opacity:1" fill="#dd2f34" d="M 193.5,224.5 C 193.832,158.331 193.499,92.3312 192.5,26.5C 183.5,26.5 174.5,26.5 165.5,26.5C 165.833,66.1723 165.5,105.839 164.5,145.5C 162.591,146.348 160.591,146.682 158.5,146.5C 156.315,135.834 153.315,125.5 149.5,115.5C 147.365,115.853 146.032,115.02 145.5,113C 146.348,110.23 146.681,107.397 146.5,104.5C 146.833,104.5 147.167,104.5 147.5,104.5C 147.643,107.385 148.643,109.718 150.5,111.5C 150.723,115.162 151.723,118.495 153.5,121.5C 155.978,127.606 158.644,133.606 161.5,139.5C 161.157,141.483 161.824,142.817 163.5,143.5C 164.499,104.337 164.832,65.0035 164.5,25.5C 174.5,25.5 184.5,25.5 194.5,25.5C 194.832,92.0021 194.499,158.335 193.5,224.5 Z"/></g>
<g><path style="opacity:1" fill="#e02e38" d="M 554.5,26.5 C 554.5,35.8333 554.5,45.1667 554.5,54.5C 539.5,54.5 524.5,54.5 509.5,54.5C 523.99,53.504 538.657,53.1707 553.5,53.5C 553.5,44.5 553.5,35.5 553.5,26.5C 528.167,26.5 502.833,26.5 477.5,26.5C 477.5,87.5 477.5,148.5 477.5,209.5C 476.501,148.669 476.168,87.6689 476.5,26.5C 502.5,25.1667 528.5,25.1667 554.5,26.5 Z"/></g>
<g><path style="opacity:0.314" fill="#420709" d="M 801.5,24.5 C 790.147,24.1678 778.814,24.5012 767.5,25.5C 767.942,26.7387 768.609,27.7387 769.5,28.5C 769.5,28.8333 769.5,29.1667 769.5,29.5C 772.109,35.9941 774.109,42.6608 775.5,49.5C 772.4,42.3837 769.567,35.0503 767,27.5C 766.219,26.0563 766.386,24.723 767.5,23.5C 777.986,23.7441 788.486,23.4108 799,22.5C 799.995,23.0659 800.828,23.7326 801.5,24.5 Z"/></g>
<g><path style="opacity:0.624" fill="#5d0e15" d="M 840.5,27.5 C 840.5,28.5 840.5,29.5 840.5,30.5C 839.974,32.2303 838.974,33.5637 837.5,34.5C 837.707,31.7594 838.707,29.4261 840.5,27.5 Z"/></g>
<g><path style="opacity:0.396" fill="#520a12" d="M 874.5,31.5 C 873.737,35.1368 872.403,38.4701 870.5,41.5C 870.5,40.8333 870.5,40.1667 870.5,39.5C 871.038,37.8828 871.371,36.2161 871.5,34.5C 872.272,33.3065 873.272,32.3065 874.5,31.5 Z"/></g>
<g><path style="opacity:0.03" fill="#260100" d="M 164.5,23.5 C 164.5,23.8333 164.5,24.1667 164.5,24.5C 163.833,24.5 163.5,24.8333 163.5,25.5C 162.833,63.5 162.167,101.5 161.5,139.5C 161.443,138.391 161.11,137.391 160.5,136.5C 161.333,99.3356 161.833,62.0022 162,24.5C 162.671,23.7476 163.504,23.4142 164.5,23.5 Z"/></g>
<g><path style="opacity:0.933" fill="#b0303a" d="M 122.5,32.5 C 123.924,34.5145 124.59,36.8478 124.5,39.5C 123.076,37.4855 122.41,35.1522 122.5,32.5 Z"/></g>
<g><path style="opacity:0.624" fill="#4a090e" d="M 837.5,34.5 C 836.189,38.772 834.855,43.1053 833.5,47.5C 832.833,47.8333 832.167,48.1667 831.5,48.5C 832.935,43.5102 834.935,38.8435 837.5,34.5 Z"/></g>
<g><path style="opacity:1" fill="#e62832" d="M 192.5,26.5 C 193.499,92.3312 193.832,158.331 193.5,224.5C 192.833,224.5 192.5,224.833 192.5,225.5C 188.4,225.237 184.4,225.57 180.5,226.5C 177.5,226.5 174.5,226.5 171.5,226.5C 171.611,225.883 171.944,225.383 172.5,225C 179.2,224.714 185.867,224.214 192.5,223.5C 192.482,157.739 192.482,92.0728 192.5,26.5 Z"/></g>
<g><path style="opacity:0.756" fill="#b23234" d="M 164.5,24.5 C 174.833,24.5 185.167,24.5 195.5,24.5C 195.832,91.6687 195.499,158.669 194.5,225.5C 193.833,225.5 193.167,225.5 192.5,225.5C 192.5,224.833 192.833,224.5 193.5,224.5C 194.499,158.335 194.832,92.0021 194.5,25.5C 184.5,25.5 174.5,25.5 164.5,25.5C 164.832,65.0035 164.499,104.337 163.5,143.5C 163.5,104.167 163.5,64.8333 163.5,25.5C 163.5,24.8333 163.833,24.5 164.5,24.5 Z"/></g>
<g><path style="opacity:1" fill="#eb2733" d="M 591.5,26.5 C 592.833,87.8333 592.833,149.167 591.5,210.5C 599.028,210.626 606.361,211.293 613.5,212.5C 605.913,212.814 598.413,212.481 591,211.5C 590.168,149.665 590.335,87.9986 591.5,26.5 Z"/></g>
<g><path style="opacity:0.141" fill="#400608" d="M 121.5,26.5 C 125.972,36.4656 129.639,46.7989 132.5,57.5C 130.833,54.1667 129.167,50.8333 127.5,47.5C 127.585,44.3511 126.585,41.6845 124.5,39.5C 124.59,36.8478 123.924,34.5145 122.5,32.5C 122.5,32.1667 122.5,31.8333 122.5,31.5C 121.962,29.8828 121.629,28.2161 121.5,26.5 Z"/></g>
<g><path style="opacity:1" fill="#c92e39" d="M 842.5,27.5 C 841.056,32.4999 839.389,37.4999 837.5,42.5C 836.165,44.2012 834.832,45.8679 833.5,47.5C 834.855,43.1053 836.189,38.772 837.5,34.5C 838.974,33.5637 839.974,32.2303 840.5,30.5C 841.167,29.5 841.833,28.5 842.5,27.5 Z"/></g>
<g><path style="opacity:1" fill="#db2b34" d="M 870.5,39.5 C 870.5,40.1667 870.5,40.8333 870.5,41.5C 868.787,42.6354 868.12,44.302 868.5,46.5C 866.506,50.1307 864.506,53.7974 862.5,57.5C 861.5,58.1667 860.5,58.8333 859.5,59.5C 860.703,57.6045 861.869,55.6045 863,53.5C 863.725,48.748 864.725,44.0813 866,39.5C 866.333,40.5 866.667,41.5 867,42.5C 867.759,40.9371 868.926,39.9371 870.5,39.5 Z"/></g>
<g><path style="opacity:1" fill="#e62931" d="M 120.5,30.5 C 121.167,30.8333 121.833,31.1667 122.5,31.5C 122.5,31.8333 122.5,32.1667 122.5,32.5C 122.41,35.1522 123.076,37.4855 124.5,39.5C 126.585,41.6845 127.585,44.3511 127.5,47.5C 128.079,52.6381 129.746,57.3047 132.5,61.5C 133.338,61.8417 133.672,62.5084 133.5,63.5C 133.413,68.0416 134.747,72.0416 137.5,75.5C 139.204,78.9385 140.538,82.6052 141.5,86.5C 141.833,89.1667 142.167,91.8333 142.5,94.5C 141.883,94.6107 141.383,94.944 141,95.5C 140.667,92.1667 140.333,88.8333 140,85.5C 139.667,85.8333 139.333,86.1667 139,86.5C 136.928,83.5452 135.595,80.2119 135,76.5C 134.517,77.448 134.351,78.448 134.5,79.5C 133.5,79.5 132.5,79.5 131.5,79.5C 131.688,81.1033 131.188,82.4366 130,83.5C 129.833,82.8333 129.667,82.1667 129.5,81.5C 130.688,79.356 130.688,77.1893 129.5,75C 130.167,73 130.833,71 131.5,69C 131.491,67.5962 130.991,66.4296 130,65.5C 128.844,66.9928 128.01,66.8261 127.5,65C 129.821,62.7729 130.154,60.2729 128.5,57.5C 125.469,54.6448 122.802,51.4781 120.5,48C 121.167,47.3333 121.833,46.6667 122.5,46C 121.581,41.5745 120.914,37.0745 120.5,32.5C 120.5,31.8333 120.5,31.1667 120.5,30.5 Z"/></g>
<g><path style="opacity:0.4" fill="#4a080d" d="M 870.5,41.5 C 870.598,43.5529 869.931,45.2196 868.5,46.5C 868.12,44.302 868.787,42.6354 870.5,41.5 Z"/></g>
<g><path style="opacity:1" fill="#c0303b" d="M 769.5,29.5 C 769.833,29.5 770.167,29.5 770.5,29.5C 773.697,36.0628 776.03,43.0628 777.5,50.5C 776.833,50.1667 776.167,49.8333 775.5,49.5C 774.109,42.6608 772.109,35.9941 769.5,29.5 Z"/></g>
<g><path style="opacity:0.331" fill="#480d09" d="M 85.5,25.5 C 85.8333,25.5 86.1667,25.5 86.5,25.5C 86.5,96.1667 86.5,166.833 86.5,237.5C 85.5386,235.735 85.2053,233.735 85.5,231.5C 84.9703,162.893 84.9703,94.2268 85.5,25.5 Z"/></g>
<g><path style="opacity:1" fill="#e32c37" d="M 233.5,25.5 C 259.5,25.5 285.5,25.5 311.5,25.5C 311.827,35.015 311.494,44.3483 310.5,53.5C 310.5,44.5 310.5,35.5 310.5,26.5C 285.167,26.5 259.833,26.5 234.5,26.5C 234.167,88.1703 234.5,149.837 235.5,211.5C 239.734,212.861 244.067,213.861 248.5,214.5C 244.169,215.634 239.836,215.634 235.5,214.5C 235.5,215.833 235.5,217.167 235.5,218.5C 252.793,217.175 270.126,216.509 287.5,216.5C 287.5,216.833 287.5,217.167 287.5,217.5C 285.167,217.5 282.833,217.5 280.5,217.5C 275.566,217.229 270.9,217.896 266.5,219.5C 262.833,219.5 259.167,219.5 255.5,219.5C 248.16,219.723 240.827,220.056 233.5,220.5C 233.5,155.5 233.5,90.5 233.5,25.5 Z"/></g>
<g><path style="opacity:1" fill="#d72f38" d="M 591.5,26.5 C 591.5,26.1667 591.5,25.8333 591.5,25.5C 601.5,25.5 611.5,25.5 621.5,25.5C 621.168,77.6693 621.501,129.669 622.5,181.5C 622.328,182.492 622.662,183.158 623.5,183.5C 633.97,184.901 644.636,185.567 655.5,185.5C 655.5,185.833 655.5,186.167 655.5,186.5C 644.167,186.5 632.833,186.5 621.5,186.5C 620.513,133.196 620.18,79.8629 620.5,26.5C 610.833,26.5 601.167,26.5 591.5,26.5 Z"/></g>
<g><path style="opacity:1" fill="#e02b35" d="M 731.5,26.5 C 732.5,26.5 733.5,26.5 734.5,26.5C 735.163,91.5086 734.496,156.175 732.5,220.5C 732.816,155.815 732.482,91.1481 731.5,26.5 Z"/></g>
<g><path style="opacity:1" fill="#dd2e38" d="M 118.5,26.5 C 108.5,26.5 98.5,26.5 88.5,26.5C 88.5,95.5 88.5,164.5 88.5,233.5C 89.1522,234.725 90.3189,235.392 92,235.5C 100.089,233.781 108.256,232.781 116.5,232.5C 116.185,193.803 116.518,155.136 117.5,116.5C 122.089,118.494 124.089,122.161 123.5,127.5C 122.833,127.167 122.167,126.833 121.5,126.5C 122.036,123.335 121.203,120.669 119,118.5C 118.536,119.094 118.369,119.761 118.5,120.5C 117.502,157.996 117.168,195.663 117.5,233.5C 115.265,233.205 113.265,233.539 111.5,234.5C 106.402,235.957 101.069,236.624 95.5,236.5C 92.8333,236.5 90.1667,236.5 87.5,236.5C 87.5,166.167 87.5,95.8333 87.5,25.5C 98.0135,25.1724 108.347,25.5058 118.5,26.5 Z"/></g>
<g><path style="opacity:0.804" fill="#b73239" d="M 121.5,26.5 C 121.629,28.2161 121.962,29.8828 122.5,31.5C 121.833,31.1667 121.167,30.8333 120.5,30.5C 120.34,28.847 119.674,27.5137 118.5,26.5C 108.347,25.5058 98.0135,25.1724 87.5,25.5C 87.5,95.8333 87.5,166.167 87.5,236.5C 90.1667,236.5 92.8333,236.5 95.5,236.5C 94.1667,237.167 92.8333,237.833 91.5,238.5C 91.1667,238.5 90.8333,238.5 90.5,238.5C 88.901,238.768 87.5676,238.434 86.5,237.5C 86.5,166.833 86.5,96.1667 86.5,25.5C 97.3255,24.341 108.326,24.1743 119.5,25C 120.044,25.7172 120.711,26.2172 121.5,26.5 Z"/></g>
<g><path style="opacity:1" fill="#ed252f" d="M 118.5,26.5 C 119.674,27.5137 120.34,28.847 120.5,30.5C 120.5,31.1667 120.5,31.8333 120.5,32.5C 119.685,33.4293 118.852,34.4293 118,35.5C 117.228,34.1509 116.061,33.3176 114.5,33C 115.793,32.51 117.127,32.3433 118.5,32.5C 118.5,31.1667 118.5,29.8333 118.5,28.5C 111.161,27.416 103.828,27.416 96.5,28.5C 101.467,29.329 106.467,29.829 111.5,30C 110.584,30.3742 109.75,30.8742 109,31.5C 105.333,31.1667 101.667,30.8333 98,30.5C 97.3333,31.1667 96.6667,31.8333 96,32.5C 95.829,37.5329 95.329,42.5329 94.5,47.5C 93.1693,106.401 93.1693,165.234 94.5,224C 92.9984,224.583 91.6651,225.416 90.5,226.5C 95.1667,227.167 99.8333,227.833 104.5,228.5C 100.303,228.986 96.303,229.986 92.5,231.5C 91.914,231.291 91.414,230.957 91,230.5C 90.1482,231.571 89.3149,232.571 88.5,233.5C 88.5,164.5 88.5,95.5 88.5,26.5C 98.5,26.5 108.5,26.5 118.5,26.5 Z"/></g>
<g><path style="opacity:1" fill="#e62933" d="M 772.5,26.5 C 772.561,28.5922 773.561,30.0922 775.5,31C 775.043,31.414 774.709,31.914 774.5,32.5C 775.274,33.7112 776.107,33.7112 777,32.5C 777.127,34.6341 776.961,36.8007 776.5,39C 780.176,48.2248 782.842,57.7248 784.5,67.5C 783.833,67.1667 783.167,66.8333 782.5,66.5C 782.5,66.1667 782.5,65.8333 782.5,65.5C 782.241,62.7282 781.241,60.3949 779.5,58.5C 778.629,55.8877 777.963,53.221 777.5,50.5C 776.03,43.0628 773.697,36.0628 770.5,29.5C 770.285,27.8212 770.952,26.8212 772.5,26.5 Z"/></g>
<g><path style="opacity:0.392" fill="#51090f" d="M 775.5,49.5 C 776.167,49.8333 776.833,50.1667 777.5,50.5C 777.963,53.221 778.629,55.8877 779.5,58.5C 780.038,60.1172 780.371,61.7839 780.5,63.5C 778.065,59.2006 776.398,54.534 775.5,49.5 Z"/></g>
<g><path style="opacity:1" fill="#de2e39" d="M 347.5,26.5 C 347.183,35.4178 347.516,44.2511 348.5,53C 358.552,52.8545 368.219,53.6879 377.5,55.5C 377.167,55.5 376.833,55.5 376.5,55.5C 366.681,54.506 356.681,54.1726 346.5,54.5C 346.173,44.985 346.506,35.6517 347.5,26.5 Z"/></g>
<g><path style="opacity:1" fill="#c33039" d="M 833.5,47.5 C 833.534,52.0689 832.201,56.0689 829.5,59.5C 830.167,55.8333 830.833,52.1667 831.5,48.5C 832.167,48.1667 832.833,47.8333 833.5,47.5 Z"/></g>
<g><path style="opacity:0.731" fill="#af2d34" d="M 232.5,25.5 C 258.995,24.5021 285.661,24.1688 312.5,24.5C 312.5,34.8333 312.5,45.1667 312.5,55.5C 297.167,55.5 281.833,55.5 266.5,55.5C 266.167,55.5 265.833,55.5 265.5,55.5C 280.5,54.8333 295.5,54.1667 310.5,53.5C 311.494,44.3483 311.827,35.015 311.5,25.5C 285.5,25.5 259.5,25.5 233.5,25.5C 233.167,25.5 232.833,25.5 232.5,25.5 Z"/></g>
<g><path style="opacity:0.734" fill="#ac2930" d="M 554.5,26.5 C 554.833,26.5 555.167,26.5 555.5,26.5C 555.5,36.1667 555.5,45.8333 555.5,55.5C 540.167,55.5 524.833,55.5 509.5,55.5C 509.5,72.5 509.5,89.5 509.5,106.5C 507.514,89.8662 506.848,72.8662 507.5,55.5C 508.167,55.1667 508.833,54.8333 509.5,54.5C 524.5,54.5 539.5,54.5 554.5,54.5C 554.5,45.1667 554.5,35.8333 554.5,26.5 Z"/></g>
<g><path style="opacity:0.35" fill="#620d13" d="M 623.5,30.5 C 623.5,81.5 623.5,132.5 623.5,183.5C 622.662,183.158 622.328,182.492 622.5,181.5C 622.5,129.167 622.5,76.8333 622.5,24.5C 611.321,24.1721 600.321,24.5054 589.5,25.5C 589.5,87.8333 589.5,150.167 589.5,212.5C 588.501,150.002 588.168,87.3356 588.5,24.5C 598.902,23.8227 609.402,23.156 620,22.5C 624.191,23.8794 625.358,26.5461 623.5,30.5 Z"/></g>
<g><path style="opacity:1" fill="#ca2e37" d="M 803.5,33.5 C 805.167,36.8333 806.833,40.1667 808.5,43.5C 808.655,48.8313 810.321,53.498 813.5,57.5C 813.5,58.8333 813.5,60.1667 813.5,61.5C 812.069,60.2196 811.402,58.5529 811.5,56.5C 810.5,56.5 809.5,56.5 808.5,56.5C 807.858,48.5835 806.192,40.9168 803.5,33.5 Z"/></g>
<g><path style="opacity:0.4" fill="#520a11" d="M 808.5,43.5 C 810.935,47.7994 812.602,52.466 813.5,57.5C 810.321,53.498 808.655,48.8313 808.5,43.5 Z"/></g>
<g><path style="opacity:0.961" fill="#b13034" d="M 127.5,47.5 C 129.167,50.8333 130.833,54.1667 132.5,57.5C 132.5,58.8333 132.5,60.1667 132.5,61.5C 129.746,57.3047 128.079,52.6381 127.5,47.5 Z"/></g>
<g><path style="opacity:0.178" fill="#320000" d="M 701.5,24.5 C 701.17,89.9045 701.504,155.238 702.5,220.5C 701.167,188.174 700.5,155.507 700.5,122.5C 700.5,89.665 700.833,56.9983 701.5,24.5 Z"/></g>
<g><path style="opacity:0.828" fill="#b4333b" d="M 589.5,25.5 C 600.321,24.5054 611.321,24.1721 622.5,24.5C 622.5,76.8333 622.5,129.167 622.5,181.5C 621.501,129.669 621.168,77.6693 621.5,25.5C 611.5,25.5 601.5,25.5 591.5,25.5C 590.833,25.5 590.167,25.5 589.5,25.5 Z"/></g>
<g><path style="opacity:0.235" fill="#420809" d="M 868.5,46.5 C 867.266,51.883 865.266,56.883 862.5,61.5C 862.5,60.1667 862.5,58.8333 862.5,57.5C 864.506,53.7974 866.506,50.1307 868.5,46.5 Z"/></g>
<g><path style="opacity:0.447" fill="#3d0605" d="M 132.5,57.5 C 134.935,61.7994 136.602,66.466 137.5,71.5C 135.975,68.9209 134.641,66.2542 133.5,63.5C 133.672,62.5084 133.338,61.8417 132.5,61.5C 132.5,60.1667 132.5,58.8333 132.5,57.5 Z"/></g>
<g><path style="opacity:0.839" fill="#91212b" d="M 779.5,58.5 C 781.241,60.3949 782.241,62.7282 782.5,65.5C 781.833,65.5 781.167,65.5 780.5,65.5C 780.5,64.8333 780.5,64.1667 780.5,63.5C 780.371,61.7839 780.038,60.1172 779.5,58.5 Z"/></g>
<g><path style="opacity:0.475" fill="#480609" d="M 813.5,57.5 C 815.962,62.3707 817.962,67.5374 819.5,73C 819.836,74.0299 820.503,74.5299 821.5,74.5C 821.294,76.5492 820.461,76.8825 819,75.5C 817.629,70.5359 815.796,65.8692 813.5,61.5C 813.5,60.1667 813.5,58.8333 813.5,57.5 Z"/></g>
<g><path style="opacity:1" fill="#b82e36" d="M 862.5,57.5 C 862.5,58.8333 862.5,60.1667 862.5,61.5C 860.206,64.3695 858.872,67.7029 858.5,71.5C 857.833,71.8333 857.167,72.1667 856.5,72.5C 857.186,68.0246 858.186,63.6912 859.5,59.5C 860.5,58.8333 861.5,58.1667 862.5,57.5 Z"/></g>
<g><path style="opacity:0.837" fill="#ba323b" d="M 409.5,55.5 C 409.833,55.5 410.167,55.5 410.5,55.5C 410.5,107.833 410.5,160.167 410.5,212.5C 406.833,212.5 403.167,212.5 399.5,212.5C 399.5,212.167 399.5,211.833 399.5,211.5C 402.833,211.5 406.167,211.5 409.5,211.5C 409.5,159.5 409.5,107.5 409.5,55.5 Z"/></g>
<g><path style="opacity:0.338" fill="#400a08" d="M 410.5,55.5 C 410.833,55.5 411.167,55.5 411.5,55.5C 421.833,55.5 432.167,55.5 442.5,55.5C 432.681,56.494 422.681,56.8274 412.5,56.5C 412.667,108.501 412.5,160.501 412,212.5C 404.587,213.481 397.087,213.814 389.5,213.5C 385.298,213.817 381.298,213.483 377.5,212.5C 384.833,212.5 392.167,212.5 399.5,212.5C 403.167,212.5 406.833,212.5 410.5,212.5C 410.5,160.167 410.5,107.833 410.5,55.5 Z"/></g>
<g><path style="opacity:0.667" fill="#540f15" d="M 831.5,48.5 C 830.833,52.1667 830.167,55.8333 829.5,59.5C 826.733,63.3737 824.733,67.7071 823.5,72.5C 822.833,72.8333 822.167,73.1667 821.5,73.5C 824.462,64.9314 827.796,56.5981 831.5,48.5 Z"/></g>
<g><path style="opacity:0.95" fill="#ce353e" d="M 377.5,55.5 C 377.833,55.5 378.167,55.5 378.5,55.5C 378.5,107.5 378.5,159.5 378.5,211.5C 385.5,211.5 392.5,211.5 399.5,211.5C 399.5,211.833 399.5,212.167 399.5,212.5C 392.167,212.5 384.833,212.5 377.5,212.5C 377.5,160.167 377.5,107.833 377.5,55.5 Z"/></g>
<g><path style="opacity:1" fill="#e22d35" d="M 378.5,55.5 C 379.586,55.62 380.253,56.2867 380.5,57.5C 379.509,108.477 379.176,159.477 379.5,210.5C 389.167,210.5 398.833,210.5 408.5,210.5C 408.168,158.664 408.501,106.997 409.5,55.5C 409.5,107.5 409.5,159.5 409.5,211.5C 406.167,211.5 402.833,211.5 399.5,211.5C 392.5,211.5 385.5,211.5 378.5,211.5C 378.5,159.5 378.5,107.5 378.5,55.5 Z"/></g>
<g><path style="opacity:0.153" fill="#390503" d="M 862.5,61.5 C 861.737,65.1368 860.403,68.4701 858.5,71.5C 858.872,67.7029 860.206,64.3695 862.5,61.5 Z"/></g>
<g><path style="opacity:0.925" fill="#b72d34" d="M 813.5,61.5 C 815.796,65.8692 817.629,70.5359 819,75.5C 820.461,76.8825 821.294,76.5492 821.5,74.5C 821.5,74.1667 821.5,73.8333 821.5,73.5C 822.167,73.1667 822.833,72.8333 823.5,72.5C 823.822,74.7224 823.155,76.5557 821.5,78C 820.004,78.5074 818.837,78.0074 818,76.5C 816.184,71.5543 814.684,66.5543 813.5,61.5 Z"/></g>
<g><path style="opacity:1" fill="#ce303b" d="M 829.5,59.5 C 829.252,64.7175 827.252,69.0508 823.5,72.5C 824.733,67.7071 826.733,63.3737 829.5,59.5 Z"/></g>
<g><path style="opacity:1" fill="#b22c36" d="M 133.5,63.5 C 134.641,66.2542 135.975,68.9209 137.5,71.5C 137.5,72.8333 137.5,74.1667 137.5,75.5C 134.747,72.0416 133.413,68.0416 133.5,63.5 Z"/></g>
<g><path style="opacity:0.984" fill="#b92f38" d="M 782.5,66.5 C 783.167,66.8333 783.833,67.1667 784.5,67.5C 786.123,71.3269 787.123,75.3269 787.5,79.5C 785.266,75.4775 783.599,71.1442 782.5,66.5 Z"/></g>
<g><path style="opacity:1" fill="#c32d34" d="M 855.5,74.5 C 853.231,80.716 851.231,87.0493 849.5,93.5C 848.833,94.1667 848.167,94.8333 847.5,95.5C 848.908,90.2655 849.908,84.9321 850.5,79.5C 851.5,79.5 852.5,79.5 853.5,79.5C 853.12,77.302 853.787,75.6354 855.5,74.5 Z"/></g>
<g><path style="opacity:0.51" fill="#43090c" d="M 137.5,71.5 C 142.072,82.5438 146.072,93.8771 149.5,105.5C 148.833,105.167 148.167,104.833 147.5,104.5C 146.078,98.2332 144.078,92.2332 141.5,86.5C 140.538,82.6052 139.204,78.9385 137.5,75.5C 137.5,74.1667 137.5,72.8333 137.5,71.5 Z"/></g>
<g><path style="opacity:0.255" fill="#43080a" d="M 858.5,71.5 C 856.043,79.0778 853.043,86.4111 849.5,93.5C 851.231,87.0493 853.231,80.716 855.5,74.5C 856.338,74.1583 856.672,73.4916 856.5,72.5C 857.167,72.1667 857.833,71.8333 858.5,71.5 Z"/></g>
<g><path style="opacity:0.05" fill="#270000" d="M 375.5,57.5 C 376.167,109.167 376.833,160.833 377.5,212.5C 381.298,213.483 385.298,213.817 389.5,213.5C 385.1,214.823 380.6,214.823 376,213.5C 375.5,161.501 375.333,109.501 375.5,57.5 Z"/></g>
<g><path style="opacity:0.02" fill="#2d0000" d="M 475.5,23.5 C 475.5,23.8333 475.5,24.1667 475.5,24.5C 475.5,24.8333 475.5,25.1667 475.5,25.5C 474.501,87.3311 474.168,149.331 474.5,211.5C 473.335,149.335 473.168,87.0013 474,24.5C 474.383,23.944 474.883,23.6107 475.5,23.5 Z"/></g>
<g><path style="opacity:0.204" fill="#430009" d="M 729.5,222.5 C 731.5,222.5 733.5,222.5 735.5,222.5C 735.5,157.167 735.5,91.8333 735.5,26.5C 724.549,24.5223 713.216,23.8556 701.5,24.5C 712.038,23.8121 722.705,23.1455 733.5,22.5C 734.167,22.8333 734.833,23.1667 735.5,23.5C 736.168,89.4011 736.835,155.234 737.5,221C 735.142,223.561 732.475,224.061 729.5,222.5 Z"/></g>
<g><path style="opacity:1" fill="#c9313a" d="M 787.5,81.5 C 789.017,81.5106 790.184,82.1772 791,83.5C 792.468,88.7685 793.635,94.1018 794.5,99.5C 792.196,93.5472 789.863,87.5472 787.5,81.5 Z"/></g>
<g><path style="opacity:0.988" fill="#bc313a" d="M 141.5,86.5 C 144.078,92.2332 146.078,98.2332 147.5,104.5C 147.167,104.5 146.833,104.5 146.5,104.5C 145.748,100.905 144.414,97.5715 142.5,94.5C 142.167,91.8333 141.833,89.1667 141.5,86.5 Z"/></g>
<g><path style="opacity:0.149" fill="#4c0a0f" d="M 780.5,65.5 C 781.167,65.5 781.833,65.5 782.5,65.5C 782.5,65.8333 782.5,66.1667 782.5,66.5C 783.599,71.1442 785.266,75.4775 787.5,79.5C 787.5,80.1667 787.5,80.8333 787.5,81.5C 789.863,87.5472 792.196,93.5472 794.5,99.5C 794.796,101.403 795.463,103.07 796.5,104.5C 798.364,110.763 800.031,117.096 801.5,123.5C 800.826,126.842 800.16,130.175 799.5,133.5C 794.836,143.151 790.17,152.818 785.5,162.5C 790.412,149.26 795.412,136.093 800.5,123C 793.932,103.797 787.266,84.6301 780.5,65.5 Z"/></g>
<g><path style="opacity:0.255" fill="#380805" d="M 849.5,93.5 C 848.737,97.1368 847.403,100.47 845.5,103.5C 845.584,100.673 846.25,98.006 847.5,95.5C 848.167,94.8333 848.833,94.1667 849.5,93.5 Z"/></g>
<g><path style="opacity:1" fill="#cb2e39" d="M 847.5,95.5 C 846.25,98.006 845.584,100.673 845.5,103.5C 843.552,105.32 842.552,107.654 842.5,110.5C 840.394,113.254 838.728,116.254 837.5,119.5C 837.547,116.432 838.047,113.432 839,110.5C 841.725,105.826 843.558,100.826 844.5,95.5C 845.5,95.5 846.5,95.5 847.5,95.5 Z"/></g>
<g><path style="opacity:0.576" fill="#85181c" d="M 265.5,55.5 C 265.833,55.5 266.167,55.5 266.5,55.5C 266.17,72.6749 266.503,89.6749 267.5,106.5C 279.833,107.167 292.167,107.833 304.5,108.5C 291.833,108.5 279.167,108.5 266.5,108.5C 265.503,91.0079 265.17,73.3412 265.5,55.5 Z"/></g>
<g><path style="opacity:0.576" fill="#5f1014" d="M 509.5,106.5 C 509.833,106.5 510.167,106.5 510.5,106.5C 523.504,106.333 536.504,106.5 549.5,107C 550.487,117.752 550.82,128.585 550.5,139.5C 537.167,139.5 523.833,139.5 510.5,139.5C 523.323,138.505 536.323,138.171 549.5,138.5C 549.827,128.319 549.494,118.319 548.5,108.5C 535.124,109.148 522.124,108.481 509.5,106.5 Z"/></g>
<g><path style="opacity:0.929" fill="#c13038" d="M 796.5,104.5 C 799.437,110.234 801.771,116.234 803.5,122.5C 803.522,126.797 802.189,130.464 799.5,133.5C 800.16,130.175 800.826,126.842 801.5,123.5C 800.031,117.096 798.364,110.763 796.5,104.5 Z"/></g>
<g><path style="opacity:0.192" fill="#410505" d="M 845.5,103.5 C 845.065,106.157 844.065,108.491 842.5,110.5C 842.552,107.654 843.552,105.32 845.5,103.5 Z"/></g>
<g><path style="opacity:1" fill="#b02d34" d="M 147.5,104.5 C 148.167,104.833 148.833,105.167 149.5,105.5C 149.517,107.565 149.85,109.565 150.5,111.5C 148.643,109.718 147.643,107.385 147.5,104.5 Z"/></g>
<g><path style="opacity:1" fill="#de2e37" d="M 507.5,55.5 C 506.848,72.8662 507.514,89.8662 509.5,106.5C 522.124,108.481 535.124,109.148 548.5,108.5C 548.5,118.167 548.5,127.833 548.5,137.5C 535.496,137.333 522.496,137.5 509.5,138C 508.956,138.717 508.289,139.217 507.5,139.5C 507.414,138.504 507.748,137.671 508.5,137C 521.496,136.5 534.496,136.333 547.5,136.5C 547.5,127.5 547.5,118.5 547.5,109.5C 534.496,109.667 521.496,109.5 508.5,109C 508,108.5 507.5,108 507,107.5C 506.171,89.9951 506.338,72.6618 507.5,55.5 Z"/></g>
<g><path style="opacity:0.314" fill="#3a0707" d="M 149.5,105.5 C 151.806,109.085 153.139,113.085 153.5,117.5C 152.5,115.5 151.5,113.5 150.5,111.5C 149.85,109.565 149.517,107.565 149.5,105.5 Z"/></g>
<g><path style="opacity:0.906" fill="#a92d35" d="M 150.5,111.5 C 151.5,113.5 152.5,115.5 153.5,117.5C 153.5,118.833 153.5,120.167 153.5,121.5C 151.723,118.495 150.723,115.162 150.5,111.5 Z"/></g>
<g><path style="opacity:0.612" fill="#4d0a0e" d="M 153.5,117.5 C 156.401,123.527 158.734,129.861 160.5,136.5C 161.11,137.391 161.443,138.391 161.5,139.5C 158.644,133.606 155.978,127.606 153.5,121.5C 153.5,120.167 153.5,118.833 153.5,117.5 Z"/></g>
<g><path style="opacity:0.412" fill="#490c10" d="M 121.5,126.5 C 122.167,126.833 122.833,127.167 123.5,127.5C 125.416,132.672 126.749,138.005 127.5,143.5C 124.735,138.21 122.735,132.543 121.5,126.5 Z"/></g>
<g><path style="opacity:1" fill="#e12d36" d="M 304.5,109.5 C 305.494,118.652 305.827,127.985 305.5,137.5C 292.5,137.5 279.5,137.5 266.5,137.5C 278.655,136.505 290.989,136.171 303.5,136.5C 304.415,127.54 304.748,118.54 304.5,109.5 Z"/></g>
<g><path style="opacity:0.896" fill="#c1323b" d="M 266.5,108.5 C 279.167,108.5 291.833,108.5 304.5,108.5C 306.474,118.111 307.141,128.111 306.5,138.5C 292.99,138.171 279.656,138.504 266.5,139.5C 266.167,139.5 265.833,139.5 265.5,139.5C 265.328,138.508 265.662,137.842 266.5,137.5C 279.5,137.5 292.5,137.5 305.5,137.5C 305.827,127.985 305.494,118.652 304.5,109.5C 291.656,109.829 278.989,109.495 266.5,108.5 Z"/></g>
<g><path style="opacity:0.363" fill="#430c0d" d="M 267.5,106.5 C 280.504,106.333 293.504,106.5 306.5,107C 307.167,108 307.833,109 308.5,110C 308.512,119.77 308.179,129.436 307.5,139C 304.776,139.27 302.109,139.77 299.5,140.5C 291.556,139.531 283.556,139.198 275.5,139.5C 272.5,139.5 269.5,139.5 266.5,139.5C 279.656,138.504 292.99,138.171 306.5,138.5C 307.141,128.111 306.474,118.111 304.5,108.5C 292.167,107.833 279.833,107.167 267.5,106.5 Z"/></g>
<g><path style="opacity:0.71" fill="#a3262b" d="M 734.5,26.5 C 734.833,26.5 735.167,26.5 735.5,26.5C 735.5,91.8333 735.5,157.167 735.5,222.5C 733.5,222.5 731.5,222.5 729.5,222.5C 724.13,222.608 718.797,222.275 713.5,221.5C 713.5,221.167 713.5,220.833 713.5,220.5C 719.167,220.5 724.833,220.5 730.5,220.5C 731.167,220.5 731.833,220.5 732.5,220.5C 734.496,156.175 735.163,91.5086 734.5,26.5 Z"/></g>
<g><path style="opacity:0.906" fill="#bf3039" d="M 123.5,127.5 C 124.586,127.62 125.253,128.287 125.5,129.5C 129.896,142.923 134.229,156.257 138.5,169.5C 137.017,166.372 135.351,163.372 133.5,160.5C 132.434,154.459 130.434,148.793 127.5,143.5C 126.749,138.005 125.416,132.672 123.5,127.5 Z"/></g>
<g><path style="opacity:0.53" fill="#5f0e15" d="M 510.5,139.5 C 510.831,163.672 510.498,187.672 509.5,211.5C 509.167,211.5 508.833,211.5 508.5,211.5C 508.333,187.831 508.5,164.164 509,140.5C 509.383,139.944 509.883,139.611 510.5,139.5 Z"/></g>
<g><path style="opacity:0.196" fill="#3c0808" d="M 127.5,143.5 C 130.434,148.793 132.434,154.459 133.5,160.5C 130.731,155.199 128.731,149.532 127.5,143.5 Z"/></g>
<g><path style="opacity:1" fill="#cf2e35" d="M 837.5,119.5 C 836.327,122.847 836.493,126.18 838,129.5C 840.606,136.486 843.106,143.486 845.5,150.5C 844.193,149.847 842.86,149.18 841.5,148.5C 839.316,140.212 837.316,131.878 835.5,123.5C 835.585,121.667 836.252,120.334 837.5,119.5 Z"/></g>
<g><path style="opacity:0.27" fill="#490607" d="M 121.5,126.5 C 120.732,125.737 120.232,124.737 120,123.5C 119.833,128.167 119.667,132.833 119.5,137.5C 119.407,166.504 119.74,195.504 120.5,224.5C 119.989,228.002 119.322,231.335 118.5,234.5C 118.5,196.5 118.5,158.5 118.5,120.5C 118.369,119.761 118.536,119.094 119,118.5C 121.203,120.669 122.036,123.335 121.5,126.5 Z"/></g>
<g><path style="opacity:0.095" fill="#270000" d="M 266.5,139.5 C 269.5,139.5 272.5,139.5 275.5,139.5C 273.052,140.473 270.385,140.806 267.5,140.5C 267.5,156.167 267.5,171.833 267.5,187.5C 266.504,171.675 266.17,155.675 266.5,139.5 Z"/></g>
<g><path style="opacity:1" fill="#cb3039" d="M 799.5,133.5 C 797.251,138.135 795.751,143.135 795,148.5C 792.074,154.688 788.907,160.688 785.5,166.5C 785.5,165.167 785.5,163.833 785.5,162.5C 790.17,152.818 794.836,143.151 799.5,133.5 Z"/></g>
<g><path style="opacity:0.494" fill="#771519" d="M 265.5,139.5 C 265.833,139.5 266.167,139.5 266.5,139.5C 266.17,155.675 266.504,171.675 267.5,187.5C 268.167,187.5 268.833,187.5 269.5,187.5C 271.833,187.5 274.167,187.5 276.5,187.5C 273.375,188.479 270.042,188.813 266.5,188.5C 265.504,172.342 265.17,156.009 265.5,139.5 Z"/></g>
<g><path style="opacity:0.404" fill="#4c080e" d="M 133.5,160.5 C 135.351,163.372 137.017,166.372 138.5,169.5C 138.259,171.898 138.926,173.898 140.5,175.5C 141.833,180.833 143.167,186.167 144.5,191.5C 140.262,181.457 136.595,171.123 133.5,160.5 Z"/></g>
<g><path style="opacity:1" fill="#c73138" d="M 845.5,151.5 C 850.074,163.222 854.074,175.222 857.5,187.5C 854.896,182.156 852.729,176.49 851,170.5C 849.302,168.734 847.969,166.734 847,164.5C 846.535,160.152 846.035,155.819 845.5,151.5 Z"/></g>
<g><path style="opacity:0.584" fill="#4e0a0f" d="M 842.5,110.5 C 841.331,115.174 839.664,119.674 837.5,124C 846.654,149.802 855.654,175.636 864.5,201.5C 862.449,198.342 860.783,195.008 859.5,191.5C 859.011,190.005 858.345,188.671 857.5,187.5C 854.074,175.222 850.074,163.222 845.5,151.5C 845.5,151.167 845.5,150.833 845.5,150.5C 843.106,143.486 840.606,136.486 838,129.5C 836.493,126.18 836.327,122.847 837.5,119.5C 838.728,116.254 840.394,113.254 842.5,110.5 Z"/></g>
<g><path style="opacity:0.065" fill="#2d0000" d="M 588.5,24.5 C 588.168,87.3356 588.501,150.002 589.5,212.5C 589.5,213.167 589.833,213.5 590.5,213.5C 590.5,213.833 590.5,214.167 590.5,214.5C 589.504,214.586 588.671,214.252 588,213.5C 587.168,150.332 587.335,87.332 588.5,24.5 Z"/></g>
<g><path style="opacity:1" fill="#c32b33" d="M 819.5,171.5 C 818.325,171.281 817.325,171.614 816.5,172.5C 816.058,173.739 815.391,174.739 814.5,175.5C 814.674,173.139 815.007,170.806 815.5,168.5C 816.833,168.5 818.167,168.5 819.5,168.5C 819.5,169.5 819.5,170.5 819.5,171.5 Z"/></g>
<g><path style="opacity:0.793" fill="#af363d" d="M 118.5,120.5 C 118.5,158.5 118.5,196.5 118.5,234.5C 116.167,234.5 113.833,234.5 111.5,234.5C 113.265,233.539 115.265,233.205 117.5,233.5C 117.168,195.663 117.502,157.996 118.5,120.5 Z"/></g>
<g><path style="opacity:0.894" fill="#c0313b" d="M 138.5,169.5 C 140.28,170.99 140.946,172.99 140.5,175.5C 138.926,173.898 138.259,171.898 138.5,169.5 Z"/></g>
<g><path style="opacity:0.357" fill="#490a0e" d="M 785.5,162.5 C 785.5,163.833 785.5,165.167 785.5,166.5C 782.167,173.5 778.833,180.5 775.5,187.5C 778.068,178.784 781.401,170.451 785.5,162.5 Z"/></g>
<g><path style="opacity:0.192" fill="#43080a" d="M 819.5,173.5 C 822.618,179.042 824.618,185.042 825.5,191.5C 822.527,185.915 820.527,179.915 819.5,173.5 Z"/></g>
<g><path style="opacity:1" fill="#d12f38" d="M 785.5,166.5 C 785.004,171.327 783.837,175.993 782,180.5C 779.821,184.198 777.654,187.864 775.5,191.5C 775.5,190.167 775.5,188.833 775.5,187.5C 778.833,180.5 782.167,173.5 785.5,166.5 Z"/></g>
<g><path style="opacity:0.953" fill="#bd2f39" d="M 140.5,175.5 C 143.234,180.69 145.234,186.357 146.5,192.5C 145.833,192.167 145.167,191.833 144.5,191.5C 143.167,186.167 141.833,180.833 140.5,175.5 Z"/></g>
<g><path style="opacity:0.355" fill="#470b0d" d="M 623.5,183.5 C 626.5,183.5 629.5,183.5 632.5,183.5C 643.029,183.47 653.362,184.137 663.5,185.5C 660.833,185.5 658.167,185.5 655.5,185.5C 644.636,185.567 633.97,184.901 623.5,183.5 Z"/></g>
<g><path style="opacity:0.255" fill="#47090e" d="M 819.5,171.5 C 819.5,172.167 819.5,172.833 819.5,173.5C 818.883,173.389 818.383,173.056 818,172.5C 814.768,180.725 811.268,188.725 807.5,196.5C 809.302,190.426 811.302,184.426 813.5,178.5C 813.557,177.391 813.89,176.391 814.5,175.5C 815.391,174.739 816.058,173.739 816.5,172.5C 817.325,171.614 818.325,171.281 819.5,171.5 Z"/></g>
<g><path style="opacity:0.373" fill="#41070c" d="M 294.5,185.5 C 292.167,186.167 289.833,186.833 287.5,187.5C 283.833,187.5 280.167,187.5 276.5,187.5C 274.167,187.5 271.833,187.5 269.5,187.5C 277.65,186.399 285.983,185.732 294.5,185.5 Z"/></g>
<g><path style="opacity:1" fill="#d63038" d="M 311.5,215.5 C 310.5,215.5 309.5,215.5 308.5,215.5C 310.382,206.359 311.049,197.026 310.5,187.5C 299,188.095 287.5,188.762 276,189.5C 272.648,189.498 269.482,189.165 266.5,188.5C 270.042,188.813 273.375,188.479 276.5,187.5C 280.167,187.5 283.833,187.5 287.5,187.5C 295.486,186.901 303.486,186.568 311.5,186.5C 311.5,196.167 311.5,205.833 311.5,215.5 Z"/></g>
<g><path style="opacity:1" fill="#bf2e35" d="M 819.5,171.5 C 820.885,172.574 822.051,173.907 823,175.5C 824.271,181 825.771,186.333 827.5,191.5C 826.833,191.5 826.167,191.5 825.5,191.5C 824.618,185.042 822.618,179.042 819.5,173.5C 819.5,172.833 819.5,172.167 819.5,171.5 Z"/></g>
<g><path style="opacity:1" fill="#d02e37" d="M 813.5,178.5 C 811.302,184.426 809.302,190.426 807.5,196.5C 807.5,196.833 807.5,197.167 807.5,197.5C 803.44,203.391 800.107,209.724 797.5,216.5C 799.288,211.678 800.288,206.678 800.5,201.5C 801.5,201.5 802.5,201.5 803.5,201.5C 804.801,196.581 806.134,191.581 807.5,186.5C 809.938,184.076 811.938,181.409 813.5,178.5 Z"/></g>
<g><path style="opacity:0.82" fill="#95252b" d="M 294.5,185.5 C 295.833,185.5 297.167,185.5 298.5,185.5C 303.167,185.5 307.833,185.5 312.5,185.5C 313.34,194.138 313.673,202.805 313.5,211.5C 313.5,211.833 313.5,212.167 313.5,212.5C 313.715,214.179 313.048,215.179 311.5,215.5C 311.5,205.833 311.5,196.167 311.5,186.5C 303.486,186.568 295.486,186.901 287.5,187.5C 289.833,186.833 292.167,186.167 294.5,185.5 Z"/></g>
<g><path style="opacity:0.745" fill="#922028" d="M 655.5,186.5 C 655.5,186.167 655.5,185.833 655.5,185.5C 658.167,185.5 660.833,185.5 663.5,185.5C 665.5,185.5 667.5,185.5 669.5,185.5C 669.5,196.167 669.5,206.833 669.5,217.5C 666.5,217.5 663.5,217.5 660.5,217.5C 657.5,217.5 654.5,217.5 651.5,217.5C 651.5,217.167 651.5,216.833 651.5,216.5C 657.167,216.5 662.833,216.5 668.5,216.5C 668.5,206.5 668.5,196.5 668.5,186.5C 664.833,186.5 661.167,186.5 657.5,186.5C 656.833,186.5 656.167,186.5 655.5,186.5 Z"/></g>
<g><path style="opacity:1" fill="#c23137" d="M 146.5,193.5 C 147.497,193.47 148.164,193.97 148.5,195C 150.323,198.981 151.323,203.148 151.5,207.5C 149.313,203.105 147.647,198.439 146.5,193.5 Z"/></g>
<g><path style="opacity:1" fill="#c33139" d="M 775.5,191.5 C 774.684,197.657 772.35,202.99 768.5,207.5C 769.15,205.565 769.483,203.565 769.5,201.5C 772.016,198.466 774.016,195.132 775.5,191.5 Z"/></g>
<g><path style="opacity:0.024" fill="#280502" d="M 298.5,185.5 C 303.348,184.186 308.348,184.186 313.5,185.5C 314.817,194.295 314.817,202.962 313.5,211.5C 313.673,202.805 313.34,194.138 312.5,185.5C 307.833,185.5 303.167,185.5 298.5,185.5 Z"/></g>
<g><path style="opacity:0.228" fill="#3d0405" d="M 669.5,185.5 C 670.695,185.866 671.361,186.699 671.5,188C 670.189,197.376 670.189,206.709 671.5,216C 669.941,217.631 667.941,218.464 665.5,218.5C 663.631,218.493 661.964,218.16 660.5,217.5C 663.5,217.5 666.5,217.5 669.5,217.5C 669.5,206.833 669.5,196.167 669.5,185.5 Z"/></g>
<g><path style="opacity:0.612" fill="#4e0d11" d="M 775.5,187.5 C 775.5,188.833 775.5,190.167 775.5,191.5C 774.016,195.132 772.016,198.466 769.5,201.5C 770.935,196.51 772.935,191.844 775.5,187.5 Z"/></g>
<g><path style="opacity:0.122" fill="#47090d" d="M 825.5,191.5 C 826.167,191.5 826.833,191.5 827.5,191.5C 827.5,192.5 827.5,193.5 827.5,194.5C 828.038,196.117 828.371,197.784 828.5,199.5C 826.903,197.152 825.903,194.486 825.5,191.5 Z"/></g>
<g><path style="opacity:1" fill="#bf3139" d="M 859.5,191.5 C 860.783,195.008 862.449,198.342 864.5,201.5C 864.5,202.833 864.5,204.167 864.5,205.5C 861.642,201.261 859.976,196.594 859.5,191.5 Z"/></g>
<g><path style="opacity:1" fill="#bd2f37" d="M 827.5,194.5 C 831.303,197.893 832.969,202.227 832.5,207.5C 831.462,204.655 830.128,201.988 828.5,199.5C 828.371,197.784 828.038,196.117 827.5,194.5 Z"/></g>
<g><path style="opacity:0.435" fill="#4b060b" d="M 864.5,201.5 C 865.738,203.214 866.405,205.214 866.5,207.5C 865.833,206.833 865.167,206.167 864.5,205.5C 864.5,204.167 864.5,202.833 864.5,201.5 Z"/></g>
<g><path style="opacity:0.192" fill="#4d0d11" d="M 807.5,197.5 C 804.574,206.649 800.908,215.316 796.5,223.5C 796.5,221.833 796.5,220.167 796.5,218.5C 797.338,218.158 797.672,217.492 797.5,216.5C 800.107,209.724 803.44,203.391 807.5,197.5 Z"/></g>
<g><path style="opacity:0.902" fill="#b22f38" d="M 864.5,205.5 C 865.167,206.167 865.833,206.833 866.5,207.5C 866.5,208.833 866.5,210.167 866.5,211.5C 864.926,209.898 864.259,207.898 864.5,205.5 Z"/></g>
<g><path style="opacity:0.116" fill="#49060d" d="M 475.5,25.5 C 475.5,25.8333 475.5,26.1667 475.5,26.5C 475.5,88.1667 475.5,149.833 475.5,211.5C 486.5,211.5 497.5,211.5 508.5,211.5C 508.833,211.5 509.167,211.5 509.5,211.5C 497.833,212.833 486.167,212.833 474.5,211.5C 474.168,149.331 474.501,87.3311 475.5,25.5 Z"/></g>
<g><path style="opacity:0.09" fill="#46080d" d="M 828.5,199.5 C 830.128,201.988 831.462,204.655 832.5,207.5C 833.987,213.12 835.987,218.453 838.5,223.5C 838.635,227.43 839.968,230.764 842.5,233.5C 844.833,234.167 847.167,234.833 849.5,235.5C 845.993,236.006 842.826,235.34 840,233.5C 835.855,222.232 832.022,210.899 828.5,199.5 Z"/></g>
<g><path style="opacity:0.561" fill="#661418" d="M 590.5,214.5 C 590.5,214.167 590.5,213.833 590.5,213.5C 604.5,213.833 618.5,214.167 632.5,214.5C 632.833,214.5 633.167,214.5 633.5,214.5C 633.5,214.833 633.5,215.167 633.5,215.5C 630.167,215.5 626.833,215.5 623.5,215.5C 612.484,215.583 601.484,215.249 590.5,214.5 Z"/></g>
<g><path style="opacity:0.478" fill="#49080b" d="M 769.5,201.5 C 769.483,203.565 769.15,205.565 768.5,207.5C 767.396,210.81 765.729,213.81 763.5,216.5C 765.129,211.265 767.129,206.265 769.5,201.5 Z"/></g>
<g><path style="opacity:0.992" fill="#c0303a" d="M 866.5,211.5 C 868.806,215.085 870.139,219.085 870.5,223.5C 868.194,219.915 866.861,215.915 866.5,211.5 Z"/></g>
<g><path style="opacity:0.216" fill="#2b0d0c" d="M 313.5,212.5 C 314.598,213.601 314.765,214.934 314,216.5C 313.329,217.252 312.496,217.586 311.5,217.5C 311.5,217.167 311.5,216.833 311.5,216.5C 311.5,216.167 311.5,215.833 311.5,215.5C 313.048,215.179 313.715,214.179 313.5,212.5 Z"/></g>
<g><path style="opacity:0.549" fill="#460c0f" d="M 623.5,215.5 C 626.833,215.5 630.167,215.5 633.5,215.5C 639.529,215.425 645.529,215.759 651.5,216.5C 651.5,216.833 651.5,217.167 651.5,217.5C 641.986,217.256 632.653,216.589 623.5,215.5 Z"/></g>
<g><path style="opacity:1" fill="#cd2f3a" d="M 657.5,186.5 C 661.167,186.5 664.833,186.5 668.5,186.5C 668.5,196.5 668.5,206.5 668.5,216.5C 662.833,216.5 657.167,216.5 651.5,216.5C 645.529,215.759 639.529,215.425 633.5,215.5C 633.5,215.167 633.5,214.833 633.5,214.5C 644.85,214.407 656.183,214.741 667.5,215.5C 667.5,206.167 667.5,196.833 667.5,187.5C 663.958,187.813 660.625,187.479 657.5,186.5 Z"/></g>
<g><path style="opacity:0.678" fill="#bb2e3a" d="M 308.5,215.5 C 309.5,215.5 310.5,215.5 311.5,215.5C 311.5,215.833 311.5,216.167 311.5,216.5C 303.49,216.644 295.49,216.977 287.5,217.5C 287.5,217.167 287.5,216.833 287.5,216.5C 294.48,215.835 301.48,215.502 308.5,215.5 Z"/></g>
<g><path style="opacity:0.41" fill="#310b08" d="M 231.5,24.5 C 231.168,89.0022 231.501,153.335 232.5,217.5C 232.5,218.833 232.5,220.167 232.5,221.5C 240.382,221.639 248.049,220.972 255.5,219.5C 259.167,219.5 262.833,219.5 266.5,219.5C 269.167,219.5 271.833,219.5 274.5,219.5C 261.136,220.806 247.636,222.14 234,223.5C 233.127,223.265 232.293,222.931 231.5,222.5C 230.168,156.335 230.168,90.3346 231.5,24.5 Z"/></g>
<g><path style="opacity:0.325" fill="#4a0d10" d="M 311.5,216.5 C 311.5,216.833 311.5,217.167 311.5,217.5C 300.188,218.44 288.855,219.107 277.5,219.5C 278.5,218.833 279.5,218.167 280.5,217.5C 282.833,217.5 285.167,217.5 287.5,217.5C 295.49,216.977 303.49,216.644 311.5,216.5 Z"/></g>
<g><path style="opacity:1" fill="#c02e3a" d="M 832.5,207.5 C 834.267,211.033 836.1,214.7 838,218.5C 838.494,220.134 838.66,221.801 838.5,223.5C 835.987,218.453 833.987,213.12 832.5,207.5 Z"/></g>
<g><path style="opacity:0.349" fill="#891b23" d="M 280.5,217.5 C 279.5,218.167 278.5,218.833 277.5,219.5C 276.5,219.5 275.5,219.5 274.5,219.5C 271.833,219.5 269.167,219.5 266.5,219.5C 270.9,217.896 275.566,217.229 280.5,217.5 Z"/></g>
<g><path style="opacity:1" fill="#bf3139" d="M 151.5,207.5 C 152.79,208.058 153.623,209.058 154,210.5C 155.731,215.86 157.564,221.193 159.5,226.5C 163.446,227.184 167.446,227.184 171.5,226.5C 174.5,226.5 177.5,226.5 180.5,226.5C 180.5,226.833 180.5,227.167 180.5,227.5C 173.163,228.001 165.83,228.168 158.5,228C 156.244,221.141 153.91,214.308 151.5,207.5 Z"/></g>
<g><path style="opacity:0.533" fill="#641c22" d="M 763.5,216.5 C 762.628,219.579 762.628,222.579 763.5,225.5C 761.824,224.817 761.157,223.483 761.5,221.5C 761.796,219.597 762.463,217.93 763.5,216.5 Z"/></g>
<g><path style="opacity:0.596" fill="#6f181e" d="M 192.5,225.5 C 193.167,225.5 193.833,225.5 194.5,225.5C 194.5,225.833 194.5,226.167 194.5,226.5C 190.566,227.36 186.566,227.693 182.5,227.5C 181.833,227.5 181.167,227.5 180.5,227.5C 180.5,227.167 180.5,226.833 180.5,226.5C 184.4,225.57 188.4,225.237 192.5,225.5 Z"/></g>
<g><path style="opacity:0.431" fill="#3f0809" d="M 761.5,221.5 C 761.157,223.483 761.824,224.817 763.5,225.5C 769.069,225.376 774.402,226.043 779.5,227.5C 773.16,227.151 766.827,226.651 760.5,226C 759.447,224.251 759.78,222.751 761.5,221.5 Z"/></g>
<g><path style="opacity:0.992" fill="#ba2e39" d="M 768.5,207.5 C 768.662,209.527 768.495,211.527 768,213.5C 765.072,216.594 764.239,220.094 765.5,224C 774.803,225.225 784.136,226.058 793.5,226.5C 793.733,223.458 794.733,220.792 796.5,218.5C 796.5,220.167 796.5,221.833 796.5,223.5C 795.609,224.261 794.942,225.261 794.5,226.5C 790.555,227.491 786.555,227.824 782.5,227.5C 781.5,227.5 780.5,227.5 779.5,227.5C 774.402,226.043 769.069,225.376 763.5,225.5C 762.628,222.579 762.628,219.579 763.5,216.5C 765.729,213.81 767.396,210.81 768.5,207.5 Z"/></g>
<g><path style="opacity:0.4" fill="#470b0d" d="M 144.5,191.5 C 145.167,191.833 145.833,192.167 146.5,192.5C 146.5,192.833 146.5,193.167 146.5,193.5C 147.647,198.439 149.313,203.105 151.5,207.5C 153.91,214.308 156.244,221.141 158.5,228C 165.83,228.168 173.163,228.001 180.5,227.5C 181.167,227.5 181.833,227.5 182.5,227.5C 175.325,228.623 167.992,229.623 160.5,230.5C 159.446,230.32 158.446,229.987 157.5,229.5C 152.593,217.021 148.259,204.355 144.5,191.5 Z"/></g>
<g><path style="opacity:0.498" fill="#460f12" d="M 796.5,223.5 C 797.167,226.833 795.833,228.833 792.5,229.5C 789.029,228.903 785.695,228.236 782.5,227.5C 786.555,227.824 790.555,227.491 794.5,226.5C 794.942,225.261 795.609,224.261 796.5,223.5 Z"/></g>
<g><path style="opacity:1" fill="#d62e3a" d="M 838.5,223.5 C 840.034,225.746 841.701,228.08 843.5,230.5C 845.444,231.801 847.444,232.801 849.5,233.5C 847.167,233.5 844.833,233.5 842.5,233.5C 839.968,230.764 838.635,227.43 838.5,223.5 Z"/></g>
<g><path style="opacity:0.024" fill="#240302" d="M 85.5,231.5 C 85.2053,233.735 85.5386,235.735 86.5,237.5C 87.5676,238.434 88.901,238.768 90.5,238.5C 88.7768,239.807 86.9435,239.807 85,238.5C 84.2042,235.961 84.3709,233.628 85.5,231.5 Z"/></g>
<g><path style="opacity:0.831" fill="#ad2933" d="M 842.5,233.5 C 844.833,233.5 847.167,233.5 849.5,233.5C 850.5,233.5 851.5,233.5 852.5,233.5C 854.167,234.167 855.833,234.833 857.5,235.5C 855.167,235.5 852.833,235.5 850.5,235.5C 850.167,235.5 849.833,235.5 849.5,235.5C 847.167,234.833 844.833,234.167 842.5,233.5 Z"/></g>
<g><path style="opacity:1" fill="#da2f38" d="M 870.5,223.5 C 871.736,225.649 872.736,227.982 873.5,230.5C 873.5,232.5 873.5,234.5 873.5,236.5C 868.807,236.46 864.141,236.127 859.5,235.5C 858.833,235.5 858.167,235.5 857.5,235.5C 855.833,234.833 854.167,234.167 852.5,233.5C 859.19,233.948 865.857,234.615 872.5,235.5C 871.356,231.64 870.689,227.64 870.5,223.5 Z"/></g>
<g><path style="opacity:0.467" fill="#4a090e" d="M 850.5,235.5 C 852.833,235.5 855.167,235.5 857.5,235.5C 858.167,235.5 858.833,235.5 859.5,235.5C 860.833,236.167 862.167,236.833 863.5,237.5C 858.972,237.23 854.639,236.563 850.5,235.5 Z"/></g>
<g><path style="opacity:0.061" fill="#3d0708" d="M 111.5,234.5 C 113.833,234.5 116.167,234.5 118.5,234.5C 109.742,236.556 100.742,237.889 91.5,238.5C 92.8333,237.833 94.1667,237.167 95.5,236.5C 101.069,236.624 106.402,235.957 111.5,234.5 Z"/></g>
<g><path style="opacity:0.933" fill="#aa2a33" d="M 873.5,230.5 C 875.163,232.438 875.829,234.772 875.5,237.5C 872.5,237.5 869.5,237.5 866.5,237.5C 865.5,237.5 864.5,237.5 863.5,237.5C 862.167,236.833 860.833,236.167 859.5,235.5C 864.141,236.127 868.807,236.46 873.5,236.5C 873.5,234.5 873.5,232.5 873.5,230.5 Z"/></g>
<g><path style="opacity:0.541" fill="#450e12" d="M 866.5,207.5 C 870.829,216.975 874.496,226.808 877.5,237C 877.333,238.5 876.5,239.333 875,239.5C 872.004,238.965 869.171,238.298 866.5,237.5C 869.5,237.5 872.5,237.5 875.5,237.5C 875.829,234.772 875.163,232.438 873.5,230.5C 872.736,227.982 871.736,225.649 870.5,223.5C 870.139,219.085 868.806,215.085 866.5,211.5C 866.5,210.167 866.5,208.833 866.5,207.5 Z"/></g>
</svg>
